<svg xmlns="http://www.w3.org/2000/svg" viewBox="0 0 100 100" width="512" height="512" role="img" aria-label="Satori">
  <!-- Satori's brushstroke ensō (円相), baked from src/render/svg.ts: the path geometry,
       the displacement "brush" filter, and the dry-brush mask, painted in the app's
       vermilion (#b23a26) on its paper (#e3dac4). -->
  <defs>
    <filter id="enso-brush" x="-25%" y="-25%" width="150%" height="150%" color-interpolation-filters="sRGB">
      <feTurbulence type="fractalNoise" baseFrequency="0.045 0.06" numOctaves="3" seed="6" result="n"/>
      <feDisplacementMap in="SourceGraphic" in2="n" scale="6.5" xChannelSelector="R" yChannelSelector="G"/>
    </filter>
    <mask id="enso-dry" maskUnits="userSpaceOnUse" x="0" y="0" width="100" height="100">
      <rect width="100" height="100" fill="#fff"/>
      <g fill="none" stroke="#000" stroke-linecap="round">
        <circle cx="50" cy="50" r="43.5" stroke-width="1.5" stroke-dasharray="22 12 9 30" transform="rotate(8 50 50)"/>
        <circle cx="50" cy="50" r="39" stroke-width="1.1" stroke-dasharray="14 9 28 16" transform="rotate(64 50 50)"/>
        <circle cx="50" cy="50" r="35" stroke-width="1.4" stroke-dasharray="30 14 10 22" transform="rotate(146 50 50)"/>
        <circle cx="50" cy="50" r="31" stroke-width="1.0" stroke-dasharray="12 10 24 14" transform="rotate(214 50 50)"/>
        <circle cx="50" cy="50" r="27.5" stroke-width="1.3" stroke-dasharray="20 16 8 26" transform="rotate(298 50 50)"/>
      </g>
    </mask>
  </defs>
  <rect width="100" height="100" fill="#e3dac4"/>
  <path d="M 58.60 15.49 L 62.21 15.84 L 65.60 17.04 L 68.85 18.62 L 71.93 20.54 L 74.81 22.77 L 77.45 25.28 L 79.87 28.03 L 82.12 30.95 L 84.25 34.03 L 86.33 37.25 L 88.36 40.67 L 90.29 44.34 L 92.00 48.29 L 93.27 52.52 L 93.91 56.96 L 93.74 61.45 L 92.65 65.81 L 90.68 69.84 L 87.95 73.41 L 84.68 76.45 L 81.10 79.00 L 77.42 81.17 L 73.77 83.12 L 70.19 84.96 L 66.63 86.78 L 63.02 88.54 L 59.27 90.16 L 55.34 91.47 L 51.23 92.32 L 47.02 92.61 L 42.79 92.31 L 38.63 91.45 L 34.59 90.15 L 30.67 88.49 L 26.86 86.56 L 23.15 84.37 L 19.57 81.89 L 16.20 79.04 L 13.19 75.77 L 10.73 72.07 L 8.98 67.98 L 8.03 63.64 L 7.90 59.20 L 8.48 54.85 L 9.58 50.71 L 10.98 46.81 L 12.47 43.16 L 13.91 39.65 L 15.27 36.20 L 16.61 32.74 L 18.06 29.26 L 19.77 25.81 L 21.86 22.51 L 24.41 19.50 L 27.40 16.91 L 30.78 14.84 L 34.44 13.34 L 38.27 12.43 L 42.18 12.14 L 46.10 12.90 L 46.10 12.90 L 42.69 14.61 L 39.51 16.38 L 36.67 18.59 L 34.21 21.12 L 32.13 23.84 L 30.36 26.60 L 28.82 29.30 L 27.43 31.94 L 26.16 34.52 L 25.02 37.09 L 24.07 39.70 L 23.37 42.37 L 22.96 45.07 L 22.83 47.78 L 22.93 50.47 L 23.18 53.14 L 23.50 55.79 L 23.86 58.49 L 24.29 61.27 L 24.87 64.12 L 25.76 66.98 L 27.07 69.70 L 28.90 72.11 L 31.24 74.01 L 34.00 75.27 L 37.02 75.84 L 40.10 75.78 L 43.07 75.28 L 45.81 74.58 L 48.33 73.92 L 50.68 73.47 L 53.00 73.31 L 55.40 73.39 L 57.95 73.55 L 60.67 73.59 L 63.46 73.31 L 66.21 72.59 L 68.79 71.37 L 71.10 69.68 L 73.09 67.61 L 74.78 65.29 L 76.22 62.79 L 77.46 60.18 L 78.53 57.47 L 79.39 54.65 L 79.96 51.74 L 80.15 48.77 L 79.88 45.80 L 79.12 42.92 L 77.91 40.21 L 76.36 37.71 L 74.60 35.41 L 72.79 33.24 L 71.00 31.09 L 69.27 28.85 L 67.54 26.44 L 65.70 23.87 L 63.64 21.20 L 61.26 18.51 L 58.60 15.49 Z"
        fill="#b23a26" filter="url(#enso-brush)" mask="url(#enso-dry)"/>
</svg>
